<?xml version="1.0" encoding="utf-8"?>
<!-- Generator: Adobe Illustrator 15.0.0, SVG Export Plug-In . SVG Version: 6.00 Build 0)  -->
<!DOCTYPE svg PUBLIC "-//W3C//DTD SVG 1.1//EN" "http://www.w3.org/Graphics/SVG/1.1/DTD/svg11.dtd">
<svg version="1.1" id="Layer_1" xmlns="http://www.w3.org/2000/svg" xmlns:xlink="http://www.w3.org/1999/xlink" x="0px" y="0px"
	 width="300px" height="300px" viewBox="0 0 300 300" enable-background="new 0 0 300 300" xml:space="preserve">
<path d="M40.173,30.415c0,0,9.383-7.535,28.575-7.535c19.191,0,26.299,9.383,26.299,18.908s-5.259,12.795-5.259,12.795H34.061v9.241
	h41.511c0,0-18.979,9.596-24.025,13.221H34.061v9.525h7.25c0,0-6.397,7.818-6.397,18.339c0,10.52,4.396,33.692,44.846,33.692
	c0,0,12.232,0.925,30.927-6.966v-17.486c0,0-12.653,11.231-33.835,11.231c-21.182,0-26.584-10.236-26.584-18.624
	s2.702-12.866,13.79-20.187h47.482v-9.525H82.254c0,0,12.724-6.113,19.618-13.221h9.667v-9.241h-3.412c0,0,2.417-5.971,2.417-11.658
	c0-5.686-3.27-33.408-43.644-33.408c0,0-17.344-0.285-26.727,4.407V30.415z"/>
<path d="M49.209,179.992c0,0,12.506-7.531,30.271-7.531c17.764,0,23.59,8.385,23.59,15.205c0,6.822-3.907,13.004-8.668,17.195H37.84
	l-1.989,9.38h41.922c0,0-21.742,9.806-27.143,13.358H33.008l-2.132,9.521h7.39c0,0-11.368,11.369-11.368,26.718
	s12.079,26.149,38.797,26.149c0,0,19.185,0,33.253-7.249l3.695-17.337c0,0-15.632,11.227-37.66,11.227
	c-22.026,0-22.312-11.796-22.312-14.922c0-3.127-1.279-13.714,18.901-24.586h47.892l2.131-9.663H81.895
	c0,0,11.653-4.69,22.596-13.358h9.948l1.99-9.379h-3.553c0,0,5.827-8.386,5.827-19.045c0-10.657-9.237-26.716-38.229-26.716
	c0,0-15.987-0.64-27.57,4.405L49.209,179.992z"/>
<path d="M180.822,40.5c0,0,11.928-8.728,29.677-8.728c17.748,0,21.968,8.437,20.948,16.002H169.62v16.438h42.624
	c0,0-18.33,7.42-25.459,14.112H169.62v16.438h6.255c0,0-0.582,4.074-0.582,6.692s-2.473,37.388,50.336,37.388
	c0,0,22.475,0.146,34.914-6.837v-27.786c0,0-12.656,12.366-34.332,12.366c-21.678,0-24.586-11.347-18.33-21.967h58.19V78.18h-29.388
	c0,0,10.184-3.638,18.186-13.967h11.202V47.919h-4.947c0,0,2.244-38.406-48.375-38.406c0,0-21.382,0.146-32.001,4.947L180.822,40.5z
	"/>
<path d="M188.032,190.346c0,0,14.67-8.77,32.05-8.77c17.381,0,20.65,7.813,17.938,16.264h-62.983l-3.668,16.584H214.9
	c0,0-22.164,8.77-29.021,14.51h-17.54l-3.508,16.583h6.537c0,0-3.188,7.335-3.188,16.104s3.347,28.861,44.008,28.861
	c0,0,21.207,0.4,37.152-7.016l6.06-28.383c0,0-16.743,12.916-37.313,12.916s-23.759-9.966-14.351-22.483h59.157l3.668-16.583
	h-29.978c0,0,12.278-4.625,21.686-14.352h11.161l3.669-16.742h-5.104c0,0,1.435-4.146,1.435-9.566c0,0,2.473-29.34-43.61-29.34
	c0,0-20.17,0.318-32.209,5.103L188.032,190.346z"/>
</svg>
